<svg id="Layer_1" xmlns="http://www.w3.org/2000/svg" viewBox="-262 155.7 122.7 123.3"><style>.st0{fill:#1B4677;}</style><path class="st0" d="M-188 229c-.3.3-.6.4-1 .5l-11.8 3.5h-.4c-.5 0-1-.2-1.4-.6-.4-.5-.6-1.2-.5-1.8l.6-2.5h-6.4c-1.4 0-2.7-.8-2.7-2s1.3-1.8 2.7-1.8h7.4l1.4-5.3c.1-.4.3-.7.6-1l2.4-2.2h-11.6c-1.4 0-2.7-.8-2.7-2s1.3-1.8 2.7-1.8h15.8l10.5-9.3v-9.8H-218v49.7h35.6v-18.7l-1.1 1.1-4.5 4zm-20.8-28.9h17.1c1.4 0 2.5.8 2.5 1.9s-1.1 1.9-2.5 1.9h-17.1c-1.4 0-2.7-.8-2.7-2 0-1.1 1.3-1.8 2.7-1.8z"/><path class="st0" d="M-200 161.2c-31.2 0-56.5 25.3-56.5 56.5s25.3 56.5 56.5 56.5 56.5-25.3 56.5-56.5-25.3-56.5-56.5-56.5zm35.1 45.9l-14.4 14v23c0 1-.8 1.9-1.9 1.9h-38.6c-1 0-1.9-.8-1.9-1.9v-52.6c0-1 .8-1.9 1.9-1.9h38.5c1 0 1.9.8 1.9 1.9v8l.8-.7 2.5-2.3c.9-.6 2-.4 2.6.3l8.5 7.6c.9.7.9 1.9.1 2.7z"/><path class="st0" d="M-191.4 227.2l-6.1-6-2.4 8.6zM-195.9 219l6.8 6.6 21.3-20-6.9-6.2z"/></svg>