<svg id="Layer_1" xmlns="http://www.w3.org/2000/svg" viewBox="0 0 122.7 123.3"><style>.st0{fill:#1B4677;}</style><path class="st0" d="M90.5 56.3c0-.5-.4-.8-.8-.8h-3.5c-.8 0-1.5-.5-1.7-1.2-1.3-3.2-3.4-6-6.1-8.2-.5-.4-.7-.9-.7-1.5v-8c-1.6.1-6.2.7-7.9 4.9-.2.5-2.9.3-3.3.3.1.6.4 1.5.4 2.2v.1c0 1-.8 1.9-1.9 1.9l-18 .2c-1 0-2.3-.9-2.2-2.8v-.1c-7.5 2.9-13 10.4-13 18.2 0 6.9 3.7 13.4 9.7 16.9.6.3.9.9.9 1.6v5.2c0 .5 1.4.8 1.9.8h5c.5 0 .8-.4.8-.8v-2.3c0-.5.2-1 .6-1.3.4-.4.8-.5 1.3-.5h11.3c1 0 1.9.8 1.9 1.9v2.3c0 .5.4.8.8.8h6c.5 0 .8-.4.8-.8v-4.1c0-.7.4-1.4 1.1-1.7 4.7-2.1 8.4-5.9 10.3-10.7.3-.7 1-1.2 1.7-1.2h3.5c.5 0 .8-.4.8-.8h-.1V56.3zm-14.6.7c-1.5 0-2.6-1.2-2.6-2.6s1.2-2.6 2.6-2.6c1.5 0 2.6 1.2 2.6 2.6S77.4 57 75.9 57z"/><path class="st0" d="M55.8 36.7c-4.3 0-6.4 3.5-7.2 6.4h14.3c-.9-2.9-2.9-6.4-7.1-6.4z"/><path class="st0" d="M60.9 4.9C29.7 4.9 4.4 30.2 4.4 61.4s25.3 56.5 56.5 56.5 56.5-25.3 56.5-56.5S92.1 4.9 60.9 4.9zm33 62.2c0 2.5-2 4.5-4.5 4.5H87c-.1.2-.2.4-.4.6l-.9 1.4c-2.2 3.5-5.4 6.4-9.1 8.3v2.9c0 2.5-2 4.5-4.5 4.5h-6c-2.5 0-4.5-2-4.5-4.5v-.5H54v.5c0 2.5-2 4.5-4.5 4.5h-4.9c-2.5 0-5.6-2-5.6-4.5v-4.1c-2.9-1.8-5.2-4.3-7-7.1L30.2 70c-1.1-2.7-1.6-5.6-1.6-8.5 0-4.1 1.2-8 3.3-11.4-2.2-.4-3.8-2.2-3.8-4.5v-2c0-2.5 2-4.5 4.5-4.5 1 0 1.8.8 1.8 1.8s-.8 1.8-1.8 1.8c-.5 0-.8.4-.8.8v2c0 .5.4.8.8.8h2c3-3.3 6.8-5.4 11.3-6.6 1.8-3.3 4.7-6.2 9.8-6.2s7.5 2.1 9.4 4.9c.6 0 1.8-.1 2.4 0 5.1-6.9 12.1-5 12.3-4.9.8.2 1.3.9 1.3 1.8V44c2.3 2 4.2 4.4 5.6 7.1 0 0 .2.5.4.8H89.4c2.5 0 4.5 2 4.5 4.5v10.7z"/></svg>