<svg id="Layer_1" xmlns="http://www.w3.org/2000/svg" viewBox="0 0 122.7 123.3"><style>.st0{fill:#1B4677;}</style><path class="st0" d="M61.9 36.8c-9.1 0-16.4 7.4-16.4 16.3 0 3.6 2.5 10.3 7.6 19.1C56.7 78.6 62 87 62 87s5.2-8.3 8.9-14.8c5-8.9 7.6-15.5 7.5-19.1-.1-8.9-7.5-16.3-16.5-16.3zm0 25.9c-5.2 0-9.5-4.3-9.5-9.5s4.3-9.5 9.5-9.5 9.5 4.3 9.5 9.5-4.3 9.5-9.5 9.5z"/><path class="st0" d="M61.9 6C30.7 6 5.4 31.3 5.4 62.5S30.7 119 61.9 119s56.5-25.3 56.5-56.5S93.1 6 61.9 6zm12 68.2C70 81.1 66.2 86.9 66 87.1l-2.8 4.2c-.3.4-.8.7-1.3.7s-1-.2-1.3-.7l-2.8-4.2c-.2-.2-4-6-7.9-12.9-5.7-10-8.4-16.8-8.4-21.2 0-11 9.1-20 20.4-20 11.2 0 20.4 9 20.4 20 0 4.4-2.7 11.2-8.4 21.2z"/></svg>