<svg id="Layer_1" xmlns="http://www.w3.org/2000/svg" viewBox="0 0 584.7 111.2"><style>.st0{fill:#00A8E1;}</style><path class="st0" d="M39.7 111.2c-14.9 0-29.7-4-39.2-14.5-.4-.4-.7-1.1-.4-1.8l10.3-11.6c.6-.7 1.7-1 2.1-.4 8.1 8.4 17.7 10.7 28.5 10.7 10.2 0 18.3-3.5 18.3-10.9 0-7.1-7.1-10-20.1-13.8C16.6 62.3 4.6 54.4 4.6 36.5c0-17.6 15.5-26.8 35.6-26.8 13.2 0 27.2 3.2 34.7 13.1.6.8.8 1.5.3 2.1l-9.9 10.2c-.4.4-1.5 1-2.2.3-7.7-7.3-17-8.4-23.2-8.4-11 0-15.2 4.3-15.2 9.4 0 7 5.1 9.9 22.5 14.9 19.6 5.7 31.4 12.1 31.4 31 0 19.7-18 28.9-38.9 28.9M140 110.6c-24.8 0-39.9-12.4-39.9-35.8V13.3c0-.7.7-1.8 1.7-1.8h17.1c1 0 1.6 1.1 1.6 1.8V72c0 13 5.3 20.2 19.8 20.2 15.5 0 19.9-8.1 19.9-20.8V12.9c0-.6.7-1.4 1.7-1.4h17.4c.8 0 1.4.8 1.4 1.4v61.5c0 23.5-16.1 36.2-40.7 36.2M245 10.3c24.8 0 39.9 12.4 39.9 35.8v61.5c0 .7-.7 1.8-1.7 1.8H266c-1 0-1.6-1.1-1.6-1.8V48.9c0-13-5.3-20.2-19.8-20.2-15.5 0-19.9 8.1-19.9 20.8V108c0 .5-.7 1.4-1.7 1.4h-17.4c-.8 0-1.4-.8-1.4-1.4V46.5c.1-23.6 16.1-36.2 40.8-36.2M423.3 110.6c-24.8 0-39.9-12.4-39.9-35.8V13.3c0-.7.7-1.8 1.7-1.8h17.1c1 0 1.5 1.1 1.5 1.8V72c0 13 5.3 20.2 19.8 20.2 15.5 0 19.9-8.1 19.9-20.8V12.9c0-.6.7-1.4 1.7-1.4h17.4c.8 0 1.4.8 1.4 1.4v61.5c.1 23.5-15.9 36.2-40.6 36.2M528.3 10.3c24.8 0 39.9 12.4 39.9 35.8v61.5c0 .7-.7 1.8-1.7 1.8h-17.1c-1 0-1.5-1.1-1.5-1.8V48.9c0-13-5.3-20.2-19.8-20.2-15.4 0-19.9 8.1-19.9 20.8V108c0 .5-.7 1.4-1.7 1.4H489c-.8 0-1.4-.8-1.4-1.4V46.5c0-23.6 16-36.2 40.7-36.2M362.7 10.5h-.6c-4.9-.1-6.7-.2-8.6-.2-24.7 0-40.7 12.7-40.7 36.2V108c0 .5.6 1.4 1.4 1.4h17.5c1 0 1.6-.8 1.6-1.4V49.4c0-12.7 4.5-20.8 19.9-20.8h9.5c1.7 0 3.1-1.4 3.1-3.1v-12c-.1-1.6-1.4-3-3.1-3"/><g><path class="st0" d="M584.7 4.7c0 2.7-2.1 4.8-4.8 4.8-2.7 0-4.9-2.1-4.9-4.8 0-2.6 2.2-4.7 4.9-4.7s4.8 2.1 4.8 4.7zm-8.5 0c0 2.1 1.6 3.8 3.7 3.8s3.6-1.7 3.6-3.7c0-2.1-1.5-3.8-3.6-3.8-2.2 0-3.7 1.6-3.7 3.7zm2.9 2.5H578V2.5c.4-.1 1-.1 1.8-.1.9 0 1.3.1 1.6.3.3.2.5.6.5 1 0 .5-.4.9-1 1.1v.1c.5.2.7.5.9 1.2.1.7.2 1 .3 1.2H581c-.1-.2-.2-.6-.4-1.2-.1-.5-.4-.7-1-.7h-.5v1.8zm0-2.7h.5c.6 0 1.1-.2 1.1-.7 0-.4-.3-.7-1-.7-.3 0-.5 0-.6.1v1.3z"/></g></svg>