<svg id="Layer_1" xmlns="http://www.w3.org/2000/svg" viewBox="14 150 126 126"><style>.st0{fill:#BCB4AC;}</style><g id="XMLID_2_"><path id="XMLID_7_" class="st0" d="M91.6 233.1V185l-36.4 6.1h-.1v48.1l36.5-6.1zm-8.5-33.9l-19.2 3h-.3c-.9 0-1.6-.8-1.7-1.7-.2-1 .5-1.9 1.5-2l19.2-3c1-.2 1.9.5 2 1.5.1 1-.6 2.1-1.5 2.2z"/><path id="XMLID_6_" class="st0" d="M94.9 234.4c0 1-.7 1.8-1.6 1.9l-20.7 3.2v.2h25.8v-48.1h-3.5v42.8z"/><path id="XMLID_3_" class="st0" d="M77.3 158c-31.2 0-56.5 25.3-56.5 56.5S46.1 271 77.3 271s56.5-25.3 56.5-56.5S108.5 158 77.3 158zm24.1 82.9c0 1.1-.9 2-2 2H53.8c-1.1 0-2-.9-2-2v-51c0-1 .7-1.8 1.6-1.9l39.1-6.5h.3c.5 0 .9.2 1.3.5.5.4.7.9.7 1.5v4.5h4.6c1.1 0 2 .9 2 2v50.9z"/></g></svg>
