<svg id="Layer_1" xmlns="http://www.w3.org/2000/svg" viewBox="14 149 126 126"><style>.st0{fill:#0FACE4;}</style><g id="XMLID_2_"><path id="XMLID_7_" class="st0" d="M63.8 187.8v49.5h34.1v-50.1H63.8v.6zm13.7 43.9c-.4.5-1.2.5-1.6 0l-2.5-2.5-2.4 2.5c-.4.5-1.2.5-1.6 0-.4-.5-.4-1.2 0-1.7l2.4-2.5-2.4-2.5c-.4-.5-.4-1.2 0-1.7s1.2-.5 1.6 0l2.4 2.5 2.4-2.5c.4-.5 1.2-.5 1.6 0 .4.5.4 1.2 0 1.7l-2.4 2.5 2.5 2.5c.5.5.5 1.2 0 1.7zm.4-17.5h-3.5v3.6c0 .7-.5 1.2-1.1 1.2-.6 0-1.1-.5-1.1-1.2v-3.6h-3.5c-.6 0-1.1-.5-1.1-1.2s.5-1.2 1.1-1.2h3.5v-3.6c0-.7.5-1.2 1.1-1.2.6 0 1.1.5 1.1 1.2v3.6h3.5c.6 0 1.1.5 1.1 1.2.1.7-.4 1.2-1.1 1.2zm14.9 15.9h-9.2c-.6 0-1.1-.5-1.1-1.2s.5-1.2 1.1-1.2h9.2c.6 0 1.1.5 1.1 1.2s-.4 1.2-1.1 1.2zm-10.4-17c0-.7.5-1.2 1.1-1.2h9.2c.6 0 1.1.5 1.1 1.2s-.5 1.2-1.1 1.2h-9.2c-.6-.1-1.1-.6-1.1-1.2zm10.4 13.7h-9.2c-.6 0-1.1-.5-1.1-1.2s.5-1.2 1.1-1.2h9.2c.6 0 1.1.5 1.1 1.2.1.7-.4 1.2-1.1 1.2zm-25.2-34.2c0-1 .8-1.8 1.7-1.8h22.9c1 0 1.7.8 1.7 1.8v9.5c0 1-.8 1.8-1.7 1.8H69.3c-1 0-1.7-.8-1.7-1.8v-9.5z"/><path id="XMLID_6_" class="st0" d="M69.9 193h21.7v8.6H69.9z"/><path id="XMLID_3_" class="st0" d="M80.8 156.6c-31.2 0-56.5 25.3-56.5 56.5s25.3 56.5 56.5 56.5 56.5-25.3 56.5-56.5-25.3-56.5-56.5-56.5zm20.4 81.4c0 1.3-1 2.3-2.3 2.3H62.7c-1.3 0-2.3-1-2.3-2.3v-52c0-1.3 1-2.3 2.3-2.3h36.2c1.3 0 2.3 1 2.3 2.3v52z"/></g></svg>
