<svg id="Layer_1" xmlns="http://www.w3.org/2000/svg" viewBox="-262 155.7 122.7 123.3"><style>.st0{fill:#BCB4AC;}</style><path class="st0" d="M-201.4 161.3c-31.2 0-56.5 25.3-56.5 56.5s25.3 56.5 56.5 56.5 56.5-25.3 56.5-56.5-25.3-56.5-56.5-56.5zm-10.4 30.5l1.5-5.9c.2-.7.7-1.1 1.4-1.1h15c.7 0 1.3.5 1.4 1.1l1.5 5.9c.1.4 0 .9-.3 1.2-.3.3-.7.5-1.1.5h-18c-.4 0-.8-.2-1.1-.5-.3-.3-.4-.8-.3-1.2zm24.3 28.8h-13.8c-1.2 0-2.1-.8-2.1-2s.9-2 2.1-2h13.8c1.2 0 2.1.8 2.1 2 0 1.3-.9 2-2.1 2zm2.1 10.8c0 1.2-.9 2-2.1 2h-13.8c-1.2 0-2.1-.8-2.1-2s.9-2 2.1-2h13.8c1.2 0 2.1.8 2.1 2zm-2.1-23.7h-13.8c-1.2 0-2.3-.8-2.3-2s1.1-1.9 2.3-1.9h13.8c1.2 0 2.1.8 2.1 1.9 0 1.2-.9 2-2.1 2zm-21.1-8.3c.5-.7 1.3-1.1 2.1-.6 0 0 .1 0 .1.1l.3.3c.6.6.6 1.1.3 1.7 0 .1-.1.2-.1.3l-5.4 8.1c-.3.4-.8.7-1.3.8h-.1c-.5 0-.9-.2-1.3-.6l-2.9-2.6c-.6-.7-.4-1.6.1-2 .6-.6 1.5-.8 2.8.3l1 .8 4.4-6.6zm-3.7 22c-1.5 0-2.7-1.2-2.7-2.7s1.2-2.7 2.7-2.7 2.7 1.2 2.7 2.7-1.2 2.7-2.7 2.7zm2.7 10c0 1.5-1.2 2.7-2.7 2.7s-2.7-1.2-2.7-2.7c0-1.5 1.2-2.7 2.7-2.7s2.7 1.2 2.7 2.7zm31.7 13.5c0 1.2-.8 2-2 2H-223c-1.2 0-2-.8-2-2v-54.3c0-1.2.8-2 2-2h9.7l-.7 2.8c-.1.4-.1.5 0 .8h-7.2v50.9h39.5v-50.9h-7.2v-.8l-.7-2.8h9.7-.2.2c1.1.1 2 .8 2 1.9v54.4z"/></svg>
