<svg id="Layer_1" xmlns="http://www.w3.org/2000/svg" viewBox="14 154 126 126"><style>.st0{fill:#0FACE4;}</style><g id="XMLID_2_"><path id="XMLID_8_" class="st0" d="M79.8 163c-31.2 0-56.5 25.3-56.5 56.5S48.6 276 79.8 276s56.5-25.3 56.5-56.5S111 163 79.8 163zm0 83.3c-15.2 0-27.5-12.3-27.5-27.5s12.3-27.6 27.5-27.6 27.6 12.3 27.6 27.6c0 15.2-12.4 27.5-27.6 27.5z"/><path id="XMLID_7_" class="st0" d="M75.3 211.4c0 1.6.8 2.6 2.6 3.6v-7.1c-1.3.4-2.6 1.4-2.6 3.5z"/><path id="XMLID_4_" class="st0" d="M79.8 194.6c-13.4 0-24.2 10.8-24.2 24.2S66.4 243 79.8 243c13.4 0 24.2-10.8 24.2-24.2s-10.8-24.2-24.2-24.2zm6 36.8c-1.2 1-2.7 1.6-4.4 1.9v1.3c0 1-.8 1.8-1.8 1.8s-1.8-.8-1.8-1.8v-1.3c-3.6-.6-6.2-3-6.8-6.4-.1-1 .6-1.9 1.5-2 1-.2 1.9.5 2.1 1.5.3 2.1 1.8 2.9 3.2 3.2V219c-3.2-1.6-6.1-3.6-6.1-7.6 0-2.2.8-4.1 2.4-5.4 1-.9 2.3-1.4 3.8-1.7V203c0-1 .8-1.8 1.8-1.8s1.8.8 1.8 1.8v1.3c1.3.2 2.5.6 3.4 1.2 1.6 1 2.6 2.5 3 4.3.2.9-.3 1.9-1.3 2.1-.9.3-1.9-.3-2.1-1.2-.4-1.7-1.7-2.5-3-2.8v8.9c1.5.6 3.1 1.4 4.4 2.5 1.8 1.5 2.7 3.8 2.7 6.3-.1 2.2-1.1 4.3-2.8 5.8z"/><path id="XMLID_3_" class="st0" d="M81.4 220.6v8.9c1.9-.5 3.6-1.8 3.6-4 0-2.4-1.3-3.7-3.6-4.9z"/></g></svg>