<svg id="Layer_1" xmlns="http://www.w3.org/2000/svg" viewBox="14 154 126 126"><style>.st0{fill:#0FACE4;}</style><g id="XMLID_2_"><path id="XMLID_11_" class="st0" d="M65.9 229.4l-.2-.4-.4.1c-1.6.3-3.1.5-4.6.7-1.3.1-2.7.2-4 .2h-1.2l.7 1c4 5.3 9.7 8.7 16.3 9.7l1.7.2-1.1-1.2c-2.7-2.9-5-6.3-7.2-10.3z"/><path id="XMLID_10_" class="st0" d="M65.4 219.7c.6 1.7 1.3 3.3 2 4.9l.2.5.4-.1c2.9-.7 5.7-1.7 8.6-2.9 4.1-1.7 7.8-3.8 11.1-6.1l.4-.2-.1-.4c-.3-1.1-.7-2.2-1.1-3.3-1.9-5.4-4.5-10.4-7.4-14.3-1.1-1.5-2.3-2.9-3.5-4.1-1-1-2-1.8-2.9-2.4l-.2-.1h-.2c-3.4.5-6.6 1.6-9.6 3.4l-.2.1-.1.2c-.3 1.2-.6 2.5-.7 3.9-.2 1.7-.2 3.5-.1 5.4.3 4.7 1.5 10.1 3.4 15.5z"/><path id="XMLID_9_" class="st0" d="M60.4 226.3c.9-.1 1.8-.2 3-.4l.7-.1-.3-.7c-.6-1.4-1.2-2.8-1.7-4.2-1.7-4.9-2.9-9.7-3.4-14.2-.2-1.8-.3-3.6-.3-5.3 0-.6 0-1.2.1-1.8l.1-1.7-1.1 1.3c-1 1.1-1.8 2.2-2.6 3.5-1.7 2.7-2.8 5.7-3.4 8.8-.4 2.2-.5 4.5-.3 6.7.2 2.7.9 5.3 2 7.8l.1.3h.3c1.1.1 2.2.2 3.4.2 1.2 0 2.3-.1 3.4-.2z"/><path id="XMLID_8_" class="st0" d="M89.1 219.3l-.7.5c-3.1 2-6.6 3.9-10.3 5.5-2.7 1.1-5.4 2.1-8.1 2.8l-.7.2.4.6c2.9 5.2 6.4 9.3 9.7 11.6l.2.1h.2c3.4-.5 6.6-1.6 9.6-3.4l.2-.1.1-.2c.4-1.3.7-2.9.8-4.6.3-3.6-.1-7.8-1-12.1l-.4-.9z"/><path id="XMLID_5_" class="st0" d="M76.2 160c-31.2 0-56.5 25.3-56.5 56.5S45 273 76.2 273s56.5-25.3 56.5-56.5S107.4 160 76.2 160zm16.2 79.2c-4 2.8-8.7 4.5-13.6 5h-.1-.1c-.8.1-1.6.1-2.3.1-10.3 0-20-5.6-25-14.8-1.1-1.9-1.9-4-2.5-6.2-.4-1.6-.7-3.3-.9-4.9v-.1c-.3-3-.1-6.1.6-9.1 1.6-6.8 5.7-12.8 11.4-16.8 4-2.8 8.8-4.5 13.7-5h.2c.8-.1 1.6-.1 2.4-.1 6.6 0 13 2.3 18.2 6.6 3.1 2.6 5.6 5.7 7.4 9.4 1.5 3.1 2.5 6.5 2.8 10 .9 10.1-3.7 20.1-12.2 25.9z"/><path id="XMLID_4_" class="st0" d="M100.4 209.6l-.3-1.3-.7 1.1c-1.6 2.5-3.9 5-6.9 7.4l-.3.2.1.4c1.3 5.2 1.8 10.3 1.6 14.7l-.1 1.7 1.1-1.3c4.7-5.2 6.9-12.1 6.3-19-.2-1.3-.4-2.6-.8-3.9z"/><path id="XMLID_3_" class="st0" d="M98 203.9l.1-.2-.1-.2c-1.3-2.4-3.1-4.5-5.1-6.4-2.6-2.3-5.6-4.1-9-5.1-1.3-.4-2.6-.7-4-.9l-1.7-.2 1.2 1.2c.4.4.7.8 1.1 1.2 1.1 1.3 2.1 2.7 3.2 4.2 2.6 3.9 4.8 8.4 6.5 13.3.2.5.4 1.1.6 1.7l.3.8.7-.6c3.4-3 5.6-6.1 6.2-8.8z"/></g></svg>