<svg id="Layer_1" xmlns="http://www.w3.org/2000/svg" viewBox="-262 152 122.7 123.3"><style>.st0{fill:#0FACE4;}</style><path class="st0" d="M-200.5 157.7c-31.2 0-56.5 25.3-56.5 56.5s25.3 56.5 56.5 56.5 56.5-25.3 56.5-56.5-25.3-56.5-56.5-56.5zm30 66c0 7.2-5.8 13-13 13-9 0-17.6 2.8-24.9 8.1l-6.7 4.9c-.3.2-.6.3-1.1.3-.3 0-.6 0-.8-.1-.6-.3-1-1-1-1.7v-11.5h-.3c-6.2-1.1-10.7-6.5-10.7-12.8V198c0-7.2 5.8-13 13-13h32.6c7.2 0 13 5.8 13 13v25.7z"/><path class="st0" d="M-183.4 188.7h-32.7c-5 0-9.2 4.1-9.2 9.2v25.9c0 5 4.1 9.2 9.2 9.2 1 0 1.9.9 1.9 1.9v9.6l3.7-2.7c8-5.7 17.4-8.8 27.1-8.8 5 0 9.2-4.1 9.2-9.2v-25.9c0-5-4.1-9.2-9.2-9.2zm-16.4 34.5c-3.3 0-3.3-5.1 0-5.1s3.3 5 0 5.1zm6.6-17.1v.5c0 .6-.1 1.2-.2 1.7-.2.5-.4 1.1-.7 1.6-.1.2-.3.5-.5.7l-1.2 1.2c-.2.2-.5.3-.7.5l-1.3.6v1c0 1.1-.9 2-2 2s-2-.9-2-2v-1.6c0-1.1.5-2.1 1.5-2.6l1.8-1c.8-.4 1.3-1.2 1.3-2.1v-.4c0-2.2-2.3-2.3-2.6-2.3-.3 0-2.6.1-2.6 2.3 0 1.1-.9 2-2 2s-2-.9-2-2c0-4.1 3.2-6.3 6.6-6.3 2 0 4.1.8 5.4 2.5.3.3.5.7.7 1.1.1.2.2.4.2.6.1.4.2.9.3 1.4v.6z"/></svg>
