<svg id="Layer_1" xmlns="http://www.w3.org/2000/svg" viewBox="-262 155.7 122.7 123.3"><style>.st0{fill:#BCB4AC;}</style><path class="st0" d="M-183.4 225.9c-.5-.5-1.1-.7-1.8-.7-.8 0-1.5.3-2.1.9l-3.5 3.5c-.6.6-1.3 1-2.1 1-.7 0-1.2-.3-1.5-.4-2.8-1.5-6.6-3.7-10.7-7.7-4.1-4.1-6.2-7.9-7.8-10.7-.5-.9-.6-2.3.3-3.3l3.8-3.8c.5-.5.8-1.2.9-2 0-.7-.2-1.4-.7-1.9l-8.5-8.5c-.5-.5-1.1-.7-1.8-.7-.8 0-1.5.3-2.1.9l-.1.1-.1.1c-.1.1-3.3 2.6-4.6 8.5-1.7 8 2.5 16.1 14.2 27.9 13.3 13.3 24.2 14.3 27.3 14.3h.8c5.2-.6 6.8-2.5 8.4-4.6.9-1.1 1.4-2.9.2-4l-8.5-8.9zm-17.8-65.2c-31.2 0-56.5 25.3-56.5 56.5s25.3 56.5 56.5 56.5 56.5-25.3 56.5-56.5-25.3-56.5-56.5-56.5zm7.8 32.8c4 .4 8.4 2.7 11.5 5.9 3.2 3.2 5.4 7.7 5.9 11.7.1 1-.6 1.9-1.6 2h-.2c-.9 0-1.7-.7-1.8-1.6-.3-3.2-2.2-6.9-4.8-9.5-2.6-2.6-6.3-4.5-9.4-4.8-1-.1-1.7-1-1.6-2 .1-1.1 1-1.8 2-1.7zm-3.7 9.3c.1-1 1-1.7 2-1.6 2.9.3 5.9 2.3 7.7 4 1.8 1.8 3.7 4.9 4 7.8.1 1-.6 1.9-1.6 2h-.2c-.9 0-1.7-.7-1.8-1.6-.2-1.7-1.4-4.1-3-5.6-1.5-1.5-3.9-2.8-5.6-3-.9-.1-1.7-1.1-1.5-2zm24.6 37.8c-1.7 2.1-4.1 5-10.6 5.8-.1 0-.5.1-1.2.1-3.4 0-15.5-1.1-29.6-15.3-12.7-12.7-17.1-21.7-15.2-31 1.4-6.6 5-9.9 5.7-10.5 1.2-1.1 2.7-1.8 4.4-1.8 1.6 0 3.1.6 4.2 1.7l8.5 8.5c2.3 2.3 2.3 6.2-.1 8.6l-3.4 3.4.1.1c1.6 2.8 3.6 6.2 7 9.6 3.7 3.7 7.4 5.8 9.6 7l.1.1 3.4-3.4c1.2-1.2 2.8-1.8 4.4-1.8 1.6 0 3.1.6 4.2 1.7l8.5 8.5c2.2 2.4 2.2 5.9 0 8.7z"/></svg>
