<svg id="Layer_1" xmlns="http://www.w3.org/2000/svg" viewBox="14 154 126 126"><style>.st0{fill:#0FACE4;}</style><g id="XMLID_2_"><path id="XMLID_4_" class="st0" d="M76.7 162c-31.2 0-56.5 25.3-56.5 56.5S45.5 275 76.7 275s56.5-25.3 56.5-56.5S107.9 162 76.7 162zm18.8 46.1c-.3.3-.7.4-1.1.4h-2v14.3c0 7.7-6.3 14-14 14h-.1v8.1c0 .8-.7 1.5-1.5 1.5s-1.5-.7-1.5-1.5v-8.1H75c-7.7 0-14-6.3-14-14v-14.3h-2c-.8 0-1.5-.7-1.5-1.5 0-.4.2-.8.4-1.1.3-.3.7-.4 1.1-.4h7.8v-14.6c0-.5.2-.9.5-1.2.1 0 .1-.1.2-.1.3-.2.7-.3 1-.3.9 0 1.7.8 1.7 1.7v14.6h13.2V191c0-.5.2-.9.5-1.2.3-.3.7-.5 1.2-.5s.9.2 1.2.5c.3.3.5.7.5 1.2v14.6h7.6c.8 0 1.5.7 1.5 1.5.1.4-.1.7-.4 1z"/><path id="XMLID_3_" class="st0" d="M64.2 222.9c0 6 4.9 10.9 10.9 10.9h3.4c2.5 0 4.8-.8 6.6-2.3 2.6-2 4.3-5.1 4.3-8.6v-14.3H64.2v14.3z"/></g></svg>