<svg id="Layer_1" xmlns="http://www.w3.org/2000/svg" viewBox="14 154 126 126"><style>.st0{fill:#0FACE4;}</style><path id="XMLID_2_" class="st0" d="M77.1 161c-31.2 0-56.5 25.3-56.5 56.5S45.9 274 77.1 274s56.5-25.3 56.5-56.5S108.3 161 77.1 161zm-1.9 28.2c0-1.1.9-1.9 1.9-1.9s1.9.9 1.9 1.9v28c0 1.1-.9 2-1.9 2s-1.9-.9-1.9-1.9v-28.1zm2 55h-.1c-14.9-.1-27-12.4-27-27.6 0-6.2 2-12.2 5.8-17 3.7-4.8 7.8-7.7 13.6-9.2h.1c.9-.2 1.7.2 1.9 1.1.3.9-.3 1.7-1.2 2l-.8.3c-3.8 1.2-6.3 3-9.1 5.8-4.5 4.5-6.9 10.6-6.9 17s2.5 12.5 6.9 17c4.5 4.5 10.4 7 16.7 7 6.3 0 12.2-2.5 16.7-7s6.9-10.6 6.9-17-2.5-12.5-6.9-17c-2.8-2.9-5.3-4.6-9.1-5.8l-.8-.3c-.9-.4-1.4-1.1-1.2-2 .2-.8 1-1.3 1.9-1.1h.1c5.7 1.5 9.9 4.4 13.6 9.2 3.8 4.9 5.8 10.8 5.8 17 .1 15.2-12 27.5-26.9 27.6z"/></svg>