<svg id="Layer_1" xmlns="http://www.w3.org/2000/svg" viewBox="14 154 126 126"><style>.st0{fill:#0FACE4;}</style><path class="st0" d="M77.1 160.6c-31.2 0-56.5 25.3-56.5 56.5s25.3 56.5 56.5 56.5 56.5-25.3 56.5-56.5-25.3-56.5-56.5-56.5zm33 64.8c0 4.8-3.5 8.8-8.1 9.6v8.2c0 .6-.4 1.2-.9 1.5-.2.1-.5.1-.7.1-.4 0-.6-.1-.9-.3l-4.9-3.6C89.3 237 83 235 76.4 235c-4.1 0-10.2-2.6-11.6-6.2-2.4 2.1-2.8 2.3-5.3 4.1l-4.9 3.6c-.3.2-.6.3-.9.3-.2 0-.5 0-.7-.1-.5-.3-.9-.9-.9-1.5V227c-4.6-.8-8.1-4.8-8.1-9.6v-19c0-5.4 4.4-9.8 9.8-9.8h23.9c4.8 0 9.2 3.5 10 8h12.6c5.4 0 9.8 4.4 9.8 9.8v19zm-9.9-25.4H73.4c-3.3 0-6.1 2.6-6.4 5.8v19.5s.2 6 9.3 6.5c7.2.3 14.1 2.2 19.9 6.5l2.3 1.7v-6.5c0-.9.7-1.6 1.6-1.6 3.6 0 6.5-2.9 6.5-6.5v-18.9c0-3.6-2.9-6.5-6.4-6.5zm-4.8 13.7l-2.9 2.1c-.6.6-.9 1.7-.8 2.4l1.2 3.8c.1.8-.3 1.1-1 .7l-3.4-2.1c-.7-.4-1.9-.4-2.6 0l-3.4 2.2c-.7.4-1.2 0-1-.7l1.2-3.8c.1-.8-.2-1.9-.8-2.4l-2.9-2.1c-.6-.5-.4-1.1.4-1.2l3.8-.4c.8-.1 1.7-.8 2.1-1.5l1.4-3.5c.3-.7.9-.7 1.3 0l1.4 3.5c.3.7 1.3 1.4 2.1 1.5l3.8.4c.5 0 .7.6.1 1.1zm-20.9-16.9h9.2c-.8-2.7-3-4.7-6-4.7H53.9c-3.6 0-6.5 2.9-6.5 6.5v18.9c0 3.6 2.9 6.5 6.5 6.5.9 0 1.6.7 1.6 1.6v6.5l2.3-1.7c2.7-2 3.1-2.6 5.8-4.7v-20c.3-9.8 10.9-8.9 10.9-8.9z" id="XMLID_2_"/></svg>