<svg id="Layer_1" xmlns="http://www.w3.org/2000/svg" viewBox="14 151 126 126"><style>.st0{fill:#0DABE3;}</style><g id="XMLID_2_"><path id="XMLID_9_" class="st0" d="M78.4 202.5c-1.5 0-2.7 1.6-2.7 3.7v2H81v-2c.1-2.1-1-3.7-2.6-3.7z"/><path id="XMLID_6_" class="st0" d="M78 188.5c-6.8 4.5-21.4 6.3-21.4 6.3-1.6 27.3 8.9 34.9 21.4 43 13.4-8.1 22.3-16.1 21.9-43 0 0-15-1.5-21.9-6.3zm7.2 31.4c0 .8-.6 1.4-1.4 1.4H73.3c-.9 0-1.6-.7-1.6-1.6v-9.6c0-.8.6-1.4 1.4-1.4h.2v-2.4c0-3.4 1.6-6 5.1-6s5.1 2.6 5.1 6v2.4c.9 0 1.6.7 1.6 1.6v9.6z"/><path id="XMLID_3_" class="st0" d="M78.2 158c-31.2 0-56.5 25.3-56.5 56.5S47 271 78.2 271s56.5-25.3 56.5-56.5S109.4 158 78.2 158zm-.2 84.1c-14.5-9.4-26.7-18.3-24.9-50.2 0 0 16.9-2.1 24.9-7.3 8 5.6 25.4 7.3 25.4 7.3.5 31.4-9.8 40.8-25.4 50.2z"/></g></svg>
