<svg id="Layer_1" xmlns="http://www.w3.org/2000/svg" viewBox="-262 155.7 122.7 123.3"><style>.st0{fill:#0FACE4;}</style><path class="st0" d="M-200.8 207c-5.8 0-10.5 4.7-10.5 10.5s4.7 10.5 10.5 10.5 10.5-4.7 10.5-10.5c.1-5.8-4.7-10.5-10.5-10.5zm0-46c-31.2 0-56.5 25.3-56.5 56.5S-232 274-200.8 274s56.5-25.3 56.5-56.5-25.3-56.5-56.5-56.5zm13 42.1l6.3-6.3c.4-.4.9-.6 1.4-.6s1 .2 1.4.6c.4.4.6.9.6 1.4 0 .5-.2 1-.6 1.4l-6.3 6.3c-.4.4-.9.6-1.4.6-.5 0-1-.2-1.4-.6-.4-.4-.6-.9-.6-1.4s.2-1.1.6-1.4zm-14.9-14.7c0-1.1.9-2 2-2s2 .9 2 2v9.4c0 1.1-.9 2-2 2s-2-.9-2-2v-9.4zm-20 7.1c.8-.8 2-.8 2.8 0l6.3 6.3c.4.4.6.9.6 1.4s-.2 1-.6 1.4c-.4.4-.9.6-1.4.6s-1-.2-1.4-.6l-6.3-6.3c-.4-.4-.6-.9-.6-1.4 0-.5.2-1 .6-1.4zm-9.1 22c0-1.1.9-2 2-2h9.4c1.1 0 2 .9 2 2s-.9 2-2 2h-9.4c-1.2 0-2-.9-2-2zm18.1 15.8l-6.3 6.3c-.4.4-.9.6-1.4.6-.5 0-1-.2-1.4-.6-.4-.4-.6-.9-.6-1.4 0-.5.2-1 .6-1.4l6.3-6.3c.4-.4.9-.6 1.4-.6s1 .2 1.4.6c.4.4.6.9.6 1.4 0 .5-.2 1-.6 1.4zm14.9 13.4c0 1.1-.9 2-2 2s-2-.9-2-2v-9.4c0-1.1.9-2 2-2s2 .9 2 2v9.4zm-2-14.8c-7.9 0-14.4-6.5-14.4-14.4s6.5-14.4 14.4-14.4 14.4 6.5 14.4 14.4-6.4 14.4-14.4 14.4zm22 8.9c-.4.4-.9.6-1.4.6s-1-.2-1.4-.6l-6.3-6.3c-.4-.4-.6-.9-.6-1.4 0-.5.2-1 .6-1.4.4-.4.9-.6 1.4-.6.5 0 1 .2 1.4.6l6.3 6.3c.4.4.6.9.6 1.4s-.2 1-.6 1.4zm7.2-20.1h-9.4c-1.1 0-2-.9-2-2s.9-2 2-2h9.4c1.1 0 2 .9 2 2-.1 1.2-.9 2-2 2z"/></svg>