<svg id="Layer_1" xmlns="http://www.w3.org/2000/svg" viewBox="14 154 126 126"><style>.st0{fill:#0FACE4;}</style><path class="st0" d="M77.1 160.8c-31.2 0-56.5 25.3-56.5 56.5s25.3 56.5 56.5 56.5 56.5-25.3 56.5-56.5-25.3-56.5-56.5-56.5zm-22.7 63.3c0 1.2-1.3 2.2-3 2.2-1.6 0-3-1-3-2.2v-7.4c0-.8.6-1.6 1.5-1.9.4-.2.9-.3 1.5-.3s1.1.1 1.5.3c.9.4 1.5 1.1 1.5 1.9v7.4zm-1.1-11.2c-.6-.2-1.2-.3-1.8-.3-.5 0-1 .1-1.5.2.7-5.6 2.4-10.4 5.1-14.3 2.2-3.2 5.1-5.7 8.6-7.5 5.6-2.9 11-3.1 12.5-3.1h.1c1.6 0 7.2.2 13.1 3.1 3.6 1.8 6.6 4.3 9 7.5 2.8 3.8 4.6 8.6 5.3 14.3-.5-.1-1-.2-1.6-.3-.6 0-1.2.1-1.8.3-1.2-9.1-5.5-15.4-12.6-18.8-4.7-2.2-9.2-2.5-10.9-2.5h-.5c-1.3 0-6.1.1-11 2.6-6.8 3.5-10.8 9.8-12 18.8zm23.9 32.3c-1.8 0-3.3-1.5-3.3-3.3s1.5-3.3 3.3-3.3 3.3 1.5 3.3 3.3-1.5 3.3-3.3 3.3zm2.2-16.8v.9c0 .6-.2 1.2-.6 1.6-.4.4-1 .6-1.6.7-1.3 0-2.3-1-2.3-2.2v-1c0-2.9-.1-6.8 3.1-9.4.5-.4 1-.7 1.4-1 .1-.1.3-.2.4-.3 1.7-1.1 2.7-1.9 2.7-4.2-.1-3.6-4.5-3.8-5.4-3.8-.9 0-5.4.2-5.4 4 0 1.3-1 2.3-2.3 2.3s-2.3-1-2.3-2.3c0-2.6 1.1-4.9 3.1-6.4 1.8-1.4 4.2-2.1 6.8-2.1s5 .7 6.8 2.1c2 1.6 3.1 3.8 3.1 6.4 0 4.6-3.2 6.7-4.7 7.7-.5.3-1 .7-1.4 1-1.4 1.3-1.4 3.4-1.4 6zm25.6-4.3c0 1-.9 1.8-2 2.1-.4 9.8-8.8 17.7-19.1 17.7H82c.3-.6.4-1.3.4-2v-.2h1.5c9.1 0 16.4-6.9 16.8-15.6-.9-.4-1.6-1.1-1.6-2v-7.4c0-.8.6-1.6 1.5-1.9.4-.2.9-.3 1.5-.3s1.1.1 1.5.3c.9.4 1.5 1.1 1.5 1.9v7.4z"/><path class="st0" d="M103 224.2c0-.3-.2-.5-.5-.4-.2 0-.4.1-.7.1-.4 0-.8-.1-1.2-.2v2.4c.4.2.9.3 1.4.3.3 0 .6 0 .9-.1v-2.1z"/></svg>