<svg id="Layer_1" xmlns="http://www.w3.org/2000/svg" viewBox="-262 155.7 122.7 123.3"><style>.st0{fill:#BCB4AC;}</style><g id="XMLID_70_"><path id="XMLID_71_" class="st0" d="M-186.8 242.6l7.8 1.4-2.4-7.4-5.4 6zm2.9-8.9c0-.1 0-.2-.1-.2l-37.8-35.3c0-.1-.1-.1-.2-.1s-.2 0-.2.1l-5.9 6.1c-.1.1-.1.3 0 .4l37.8 35.3c.1.1.3.1.4 0l5.9-6.1s.1-.1.1-.2zm-15.9-72.7c-31.2 0-56.5 25.3-56.5 56.5S-231 274-199.8 274s56.5-25.3 56.5-56.5-25.3-56.5-56.5-56.5zm-6.4 74.3l-10.9 10.4c-1.5 1.5-3.5 2.3-5.6 2.3-2.2 0-4.2-.8-5.7-2.3-1.5-1.5-2.3-3.5-2.3-5.5s.9-4 2.4-5.5l10.8-10.1c.8-.7 2-.7 2.8 0 .4.4.6.8.6 1.3s-.2 1-.6 1.3l-10.8 10.1c-.8.7-1.2 1.7-1.2 2.8 0 1.1.4 2.1 1.2 2.8.8.8 1.8 1.2 2.9 1.2 1.1 0 2.1-.4 2.9-1.2l10.9-10.4c.8-.7 2-.7 2.7 0 .4.4.6.8.6 1.3-.1.7-.3 1.2-.7 1.5zm-15.7 6.7c-.4.4-.9.6-1.4.5-.5 0-1-.2-1.4-.6-.7-.8-.7-2 .1-2.8.4-.4.9-.5 1.4-.5.5 0 1 .2 1.4.6.7.8.7 2-.1 2.8zm46.1 5.2c-.3.3-.8.5-1.2.5h-.2l-12.6-2.5c-.3 0-.6-.2-.8-.4l-41.8-39.1c-.3-.3-.5-.7-.5-1.1 0-.4.1-.9.4-1.2l9.3-9.8c.6-.7 1.7-.7 2.3-.1l41.5 38.9c.2.2.4.5.5.8l3.9 12v.3c-.1.5-.5 1.4-.8 1.7zm4-32.9c-3.3 3.2-7.7 4.9-12.4 4.9h-.1c-1.4 0-3.4-.4-4.6-.7l-.3.2c-.4.3-.8.5-1.3.5s-1-.2-1.4-.6-.6-.8-.6-1.3.2-1 .6-1.3l1.1-.9c.5-.5 1.2-.6 1.9-.5.9.2 3.4.8 4.6.9h.1c3.7 0 7.1-1.4 9.7-3.8 2.6-2.5 4.1-5.8 4.1-9.4 0-3.5-1.4-7-4-9.5l-.1 9.5c0 .6-.3 1.2-.9 1.6l-7.7 5.1c-.7.4-1.6.4-2.2 0l-7.7-5.2c-.5-.4-.8-.9-.8-1.6l.1-9.5c-2.6 2.5-4.1 5.9-4.2 9.4 0 1.9.4 3.8 1.3 5.6.3.7.2 1.6-.4 2.1l-.9 1c-.8.7-2 .7-2.8 0-.4-.4-.6-.8-.6-1.3s.2-1 .5-1.3v-.1c-.8-2-1.1-4-1.1-6 0-6.1 3.5-11.8 9.1-14.8.6-.3 1.3-.3 1.9 0 .6.3 1 1 1 1.6l-.1 12.3 5.7 3.9 5.8-3.8.1-12.3c0-.7.4-1.3 1-1.6.6-.3 1.3-.3 1.9 0 5.5 3.1 8.9 8.8 8.9 14.9 0 4.5-1.9 8.7-5.2 12z"/></g></svg>
